<svg viewBox="0 0 300 1138" xmlns="http://www.w3.org/2000/svg" fill="none" font-family="inherit" role="img" aria-label="셈은 맞힘 두 배, 빗나감 0, 정답 없음 돌려받기 셋이고, 걸지 않고 답만 내도 한 판으로 세며, 출석과 순위는 답한 판으로 간다">
<style>
.fx-t1{fill:var(--text-default,#191a1b)}
.fx-t2{fill:var(--text-muted,#3a3d44)}
.fx-t3{fill:var(--text-subtle,#62666d)}
.fx-card{fill:var(--surface-sunken,#f2f3f5);stroke:var(--line-default,#ccd3dd);stroke-width:1;vector-effect:non-scaling-stroke}
.fx-inset{fill:var(--surface-raised,#fff);stroke:var(--line-default,#ccd3dd);stroke-width:1;vector-effect:non-scaling-stroke}
.fx-ghost{fill:none;stroke:var(--line-default,#ccd3dd);stroke-width:1.25;stroke-dasharray:5 4;vector-effect:non-scaling-stroke}
.fx-key{fill:var(--accent-default,#08090a)}
.fx-on{fill:var(--accent-on,#fff)}
.fx-sk{fill:var(--text-subtle,#62666d);opacity:.2}
.fx-sk-on{fill:var(--accent-on,#fff);opacity:.2}
.fx-ln{fill:none;stroke:var(--text-subtle,#62666d);stroke-width:1.5;stroke-linecap:round;stroke-linejoin:round}
.fx-ln-on{fill:none;stroke:var(--accent-on,#fff);stroke-width:1.5;stroke-linecap:round;stroke-linejoin:round}
.fx-dot{stroke-dasharray:.5 5}
.fx-rule{fill:none;stroke:var(--line-strong,#dfe1e5);stroke-width:1;vector-effect:non-scaling-stroke}
.fx-rule-on{fill:none;stroke:var(--accent-on,#fff);stroke-opacity:.16;stroke-width:1;vector-effect:non-scaling-stroke}
.fx-mk{fill:none;stroke:var(--text-subtle,#62666d);stroke-width:1.25}
</style>
<circle cx="8" cy="9.3" r="8" class="fx-key"/>
<path d="M4.6 9.5 L7.2 12 L11.5 6.9" class="fx-ln-on" style="stroke-width:1.5"/>
<text x="24" y="14" font-size="13" font-weight="600" letter-spacing="0.2" class="fx-t2">셈은 셋뿐</text>
<rect x="0" y="34" width="300" height="290" rx="16" class="fx-card"/>
<rect x="12" y="50" width="276" height="78" rx="8" class="fx-inset"/>
<text x="28" y="95" font-size="15" font-weight="600" class="fx-t1">맞힘</text>
<text x="272" y="96" font-size="18" font-weight="700" text-anchor="end" class="fx-t1">× 2</text>
<rect x="12" y="140" width="276" height="78" rx="8" class="fx-inset"/>
<text x="28" y="185" font-size="15" font-weight="600" class="fx-t1">빗나감</text>
<text x="272" y="186" font-size="18" font-weight="700" text-anchor="end" class="fx-t1">0</text>
<rect x="12" y="230" width="276" height="78" rx="8" class="fx-inset"/>
<text x="28" y="275" font-size="15" font-weight="600" class="fx-t1">정답 없음</text>
<text x="272" y="276" font-size="18" font-weight="700" text-anchor="end" class="fx-t1">돌려받음</text>
<text x="0" y="354" font-size="13.5" font-weight="500" class="fx-t3">결과 화면 한 칸에 다 들어간다</text>
<circle cx="8" cy="411.3" r="8" class="fx-key"/>
<path d="M4.6 411.5 L7.2 414 L11.5 408.9" class="fx-ln-on" style="stroke-width:1.5"/>
<text x="24" y="416" font-size="13" font-weight="600" letter-spacing="0.2" class="fx-t2">걸기는 선택</text>
<rect x="0" y="452" width="300" height="70" rx="10" class="fx-inset"/>
<text x="150.0" y="492" font-size="15" font-weight="600" text-anchor="middle" class="fx-t1">100P 걸고 답</text>
<rect x="0" y="538" width="300" height="70" rx="10" class="fx-ghost"/>
<text x="150.0" y="578" font-size="15" font-weight="600" text-anchor="middle" class="fx-t2">0P 답만 내기</text>
<path d="M150.0 614 V646 M144.0 640 L150.0 646 L156.0 640" class="fx-ln"/>
<rect x="0" y="656" width="300" height="70" rx="10" class="fx-key"/>
<text x="150.0" y="696" font-size="16" font-weight="700" text-anchor="middle" class="fx-on">답한 판 +1</text>
<text x="0" y="756" font-size="13.5" font-weight="500" class="fx-t2">포인트가 없어도 다섯 판에 낀다</text>
<circle cx="8" cy="813.3" r="8" class="fx-mk"/>
<text x="24" y="818" font-size="13" font-weight="600" letter-spacing="0.2" class="fx-t2">판으로 센다</text>
<path d="M0 854 H300" class="fx-rule"/>
<text x="0" y="884" font-size="13" font-weight="500" class="fx-t3">출석</text>
<text x="0" y="910" font-size="14.5" font-weight="600" class="fx-t1">하루 세 판 답하기</text>
<path d="M0 946 H300" class="fx-rule"/>
<text x="0" y="976" font-size="13" font-weight="500" class="fx-t3">동점</text>
<text x="0" y="1002" font-size="14.5" font-weight="600" class="fx-t1">정답 수, 다음은 들어온 순서</text>
<path d="M0 1038 H300" class="fx-rule"/>
<text x="0" y="1068" font-size="13" font-weight="500" class="fx-t3">순위</text>
<text x="0" y="1094" font-size="14.5" font-weight="600" class="fx-t1">비회원도 넣는다</text>
<path d="M0 1130 H300" class="fx-rule"/>
</svg>
